<?xml version="1.0" encoding="UTF-8"?><svg id="a" xmlns="http://www.w3.org/2000/svg" viewBox="0 0 127.3 130.33"><path d="M79.46,11.13c-1.3-.87-2.62-1.71-3.89-2.62-2.76-1.97-5.62-3.38-9.2-2.63-.8,.17-1.78-.34-2.63-.67-1.01-.4-1.94-1.01-2.96-1.38-.34-.12-.84,.22-1.27,.35,.3,.25,.57,.56,.91,.74,4.29,2.27,7.89,5.33,10.79,9.21,.42,.56,.78,1.16,1.04,1.87-3.7-3.91-7.1-8.25-12.64-9.62-5.43-1.34-10.68,.05-15.89,1.52,2.11-1.82,4.76-2.19,7.33-2.76,.46-.1,.94-.14,1.38-.29,.6-.19,1.17-.46,1.75-.7-.6-.29-1.19-.83-1.79-.83-2.34,0-4.74-.17-6.99,.33-3.87,.85-7.63,2.16-11.44,3.27-.38,.11-.79,.14-1.19,.2l-.04,.03c.93-.68,1.86-1.36,2.77-2.05,.23-.17,.41-.4,.61-.61-.23-.12-.45-.3-.69-.35-6.56-1.49-15.44,.15-18.66,9.28-.37,1.04-.59,2.13-1.06,3.12-.21,.45-.81,.94-1.28,.99-2.13,.24-2.14,.18-1.43-1.9,1.1-3.25,2.51-6.33,4.69-9.02C21.48,1.94,26.5,.22,32.36,.87c2.69,.3,5.34,1.05,8.03,1.36,1.3,.15,2.68-.18,4-.44,2.2-.45,4.37-1.07,6.57-1.52,1.81-.37,3.53-.06,5.14,.92,.34,.21,.92,.38,1.23,.24,2.7-1.31,5.27-.7,7.66,.66,1.19,.67,2.25,.69,3.44,.4,1.57-.39,3.13-.88,4.72-1.18,.74-.14,1.69-.17,2.29,.18,1.15,.67,1.97,.36,3.01-.21,4.19-2.29,8.19-1.43,11.25,2.2,.43,.51,1.12,.93,1.76,1.12,11.47,3.25,21.08,9.23,28.05,19.06,3.16,4.46,6.05,9.08,7.48,14.44,.26,.99,.45,2.13,.23,3.1-1.42,6.21-3.65,12.07-8.46,16.53-1.41,1.31-3.08,2.35-4.69,3.43-1.56,1.05-3.15,2.1-4.81,2.98-2.18,1.15-3.31,2.7-2.83,5.28,.15,.79-.03,1.68-.18,2.49-.45,2.43-2.09,3.09-4.1,1.7-.64-.45-1.29-.89-1.93-1.34-.16,.76-.33,1.52-.47,2.29-.86,4.49-2.7,8.6-5.15,12.41-3.85,6.01-7.53,12.09-9.55,19.04-.81,2.78-2.5,5.05-5.16,6.48-.51,.28-.88,.88-1.25,1.38-1.77,2.43-3.73,4.67-6.35,6.25-1.82,1.1-3.72,1.61-5.85,1.06-.46-.12-1.12-.18-1.46,.06-2.77,1.91-5.84,1.37-8.84,1.1-1.45-.13-2.88-.53-4.31-.86-2.11-.49-3.29-.03-4.44,1.82-3.94,6.32-12.43,8.78-19.58,5.76-.78-.33-1.82-.43-2.64-.24-4.73,1.1-8.33-.3-10.91-4.45-3.41-5.48-4.14-11.29-1.64-17.28,1.37-3.28,3.1-6.41,4.75-9.57,.49-.94,.45-1.52-.32-2.31-3.12-3.24-4.24-7.25-4.21-11.66,0-.54,.01-1.26-.31-1.6-2.09-2.25-2.47-5.03-2.58-7.88-.1-2.36-.03-4.72,0-7.08,.01-.89-.19-1.18-1.05-.63-.48,.3-1.05,.5-1.6,.62-2.12,.45-3.67-.75-3.65-2.91,.02-1.35,.21-2.71,.41-4.05,.35-2.33,.76-4.64,1.15-6.96,.03-.2,.08-.4,.12-.59,.21,.11,.42,.22,.63,.34,.04,.02,.05,.1,.1,.12,2.33,1.49,2.43,3.63,1.81,6.01-.31,1.16-.54,2.34-.76,3.53-.06,.31,.09,.65,.14,.97,.32-.14,.82-.21,.93-.45,.73-1.66,1.38-3.36,2.05-5.04,.21-.53-.25-1.65,.95-1.31,.85,.24,1.84,.28,1.77,1.83-.23,5.18-.27,10.37-.25,15.55,0,1.16,.51,2.33,.88,3.47,.13,.4,.54,.7,.83,1.05,.17-.37,.32-.74,.5-1.11,1.04-2.15,2.08-4.31,3.13-6.46l-.03-.03c-.58,2.76-1.31,5.5-1.7,8.28-.46,3.28-.54,6.61,.78,9.76,.42,1,1.08,1.9,1.73,2.78,.23,.32,.74,.43,1.13,.64,.31-.57,1.02-1.29,.87-1.7-2.53-7.22,.71-13.08,4.33-18.85,.83-1.33,1.88-2.53,2.69-3.88,.61-1.02,1.2-.93,2.03-.38,2.73,1.8,4.78,4.22,6.45,7,2.29,3.82,4.4,7.76,6.92,11.42,1.83,2.66,4,5.16,6.37,7.35,3.88,3.59,8.49,5.32,13.87,4.09,2.25-.51,3.88-1.97,5.44-3.57,1.28-1.31,2.54-2.66,3.97-3.79,1.29-1.02,2.84-1.76,4.51-.85,1.65,.9,2.33,2.53,2.04,4.28-.55,3.29-1.22,6.57-2.07,9.79-.83,3.13-1.96,6.18-2.91,9.28-.12,.39,.02,.85,.04,1.28,.3-.27,.71-.48,.87-.82,1.11-2.3,2.25-4.6,3.22-6.96,1.34-3.29,2.48-6.66,3.84-9.94,.44-1.05,1.3-1.93,1.96-2.89l.37,.2c-.81,2.25-1.69,4.47-2.4,6.75-.58,1.84-.96,3.74-1.4,5.62-.04,.19,.09,.42,.14,.63,.16-.12,.39-.21,.47-.37,.46-.94,1.05-1.85,1.3-2.84,1.41-5.57,4.21-10.47,7.23-15.28,3.57-5.68,6.37-11.67,7.56-18.33,.3-1.67,.31-3.27-.31-4.93-1.77-4.8-2.65-9.81-2.93-14.89-.33-5.91-.44-11.84-.64-17.76-.01-.35-.04-.86,.17-1.04,1.98-1.75,1.65-4.19,1.95-6.43,.13-.98,.02-1.99,.32-3.02,.28,1.89,.68,3.77,.8,5.67,.3,4.6,.51,9.21,.67,13.82,.23,6.65,.29,13.33,1.93,19.83,.61,2.41,1.71,4.7,2.63,7.03,.12,.3,.47,.5,.71,.75,.08-.33,.2-.66,.23-.99,.32-3.59,.62-7.19,.94-10.79,.04-.41,.2-.8,.55-1.23,.29,1.87,.67,3.72,.85,5.6,.13,1.38,.56,1.15,1.4,.53,1.39-1.03,2.8-2.04,4.28-2.93,6.85-4.14,10.31-10.65,12.61-17.98,.14-.45,0-1.03-.15-1.51-4.9-15.55-15.59-25.46-30.51-31.21-.58-.22-1.2-.39-1.82-.48-1.78-.25-3.09-1.01-4.2-2.57-1.51-2.11-3.92-1.53-6.1-1.28-.36,.04-.7,.2-1.05,.32-.98,.33-1.35,.82-.68,1.84,.65,.99,1.12,2.1,1.68,3.16h.02c-1.73-1.34-3.39-2.76-5.21-3.95-.71-.47-1.76-.41-2.66-.59,.57,.61,1.12,1.24,1.7,1.83,1.54,1.56,3.09,3.11,4.63,4.67l.04,.02ZM25.81,106.16c.54-1.39,1.1-2.77,1.63-4.17,.95-2.54,2.08-5.03,2.75-7.64,.73-2.81,.61-5.85,2.29-8.42,.06-.09-.4-.72-.54-.7-1.32,.22-2.9,.17-3.86,.9-1.71,1.3-3.29,2.94-4.48,4.73-1.98,2.95-3.73,6.07-5.34,9.25-1.36,2.69-2.67,5.48-3.49,8.37-1.67,5.9-.86,11.41,3.57,16.05,1.61,1.69,3.49,1.97,5.61,1.28,.65-.21,1.24-.62,1.89-.74,.54-.1,1.3-.14,1.68,.16,2.9,2.27,6.15,2.49,9.56,1.71,5.94-1.35,9.82-5.17,8.49-12.19-.52-2.72-.94-5.48-1.11-8.24-.21-3.35,.24-6.6,2.82-9.17,.23-.23,.29-.98,.09-1.24-2.5-3.29-5.08-6.52-7.61-9.79-1.5-1.94-4.32-1.83-5.39,.35-.66,1.35-1.26,2.79-1.54,4.26-1.08,5.63-3.03,10.85-7,15.22Zm22.35,1.77l.5-.08c.97,2.58,1.92,5.18,2.94,7.74,.32,.82,.67,1.71,1.27,2.32,2.08,2.14,8.08,2.4,10.53,.58,.51-.38,.56-.52,.03-.99-1.34-1.2-2.67-2.45-3.81-3.83-1.06-1.29-1.82-2.81-2.79-4.17-1.75-2.43-3.57-4.79-6.46-6.03-2.95-1.26-3.51-.9-3.76,2.26-.3,3.97,1.38,7.58,1.97,11.39,.02,.14,.23,.24,.36,.37,.11-.16,.33-.33,.32-.48-.02-.83-.04-1.67-.15-2.49-.29-2.2-.63-4.39-.94-6.58Zm10.13-6l-.03,.24c1.32,1.6,2.55,3.3,3.99,4.79,1.14,1.17,2.43,2.29,3.85,3.05,1.47,.78,2.89,.15,3.77-1.24,1.45-2.31,1.73-4.93,1.91-7.59-.74,.95-1.32,1.99-2.01,2.94-1.36,1.87-3.12,2.54-5.04,1.76-1.19-.48-2.25-1.29-3.36-1.98-1.04-.64-2.05-1.31-3.08-1.97Z"/><path d="M42.94,39.32c-1.14-.83-2.39-1.67-3.56-2.61-.3-.24-.39-.78-.53-1.2-.46-1.38-.68-2.88-1.39-4.11-.89-1.56-2.29-1.5-3.73-.43-1.03,.76-2.33,1.13-3.39,1.85-1.93,1.32-3.97,2.15-6.32,2.51-2.55,.39-4.45,1.85-5.68,4.25-.5,.98-1.52,1.79-2.47,2.43-1.4,.95-1.41,2.25-1.19,3.62,.52,3.22,1.88,6.08,3.83,8.68,.23,.31,.35,.69,.52,1.04-.39,.11-.78,.29-1.18,.33-5.85,.49-9.88-1.77-12.55-6.99-2.09-4.09-2.84-8.51-3.26-13.02-.11-1.15-.17-2.3-.3-3.45-.05-.46-.11-1.01-.39-1.33C-.73,28.53,.26,25.66,.08,22.98c-.02-.35,.47-.98,.84-1.08,4.99-1.38,9.97-2.87,15.25-2.61,4.38,.22,8.62,1.02,12.69,2.68,4.76,1.95,9.62,1.68,14.26-.12,6.28-2.44,12.72-3.8,19.41-4.11,6.99-.32,13.91,.52,20.83,1.38,2.9,.36,5.85,.37,8.79,.5,1.78,.08,2.07,.27,2.03,1.99-.04,1.83-.19,3.66-.3,5.49-.08,1.36-.54,2.31-2.07,2.7-2.09,.54-3.19,2-3.33,4.23-.37,5.75-1.78,11.16-5.39,15.81-4.46,5.74-10.38,8.69-17.58,9.01-4.76,.21-9.45-.32-13.83-2.3-1.88-.85-3.55-2.18-5.31-3.31-1.04-.67-1.17-1.36-.25-2.37,1.38-1.52,2.21-3.41,1.87-5.47-.19-1.16-.76-2.45-1.58-3.27-.67-.68-.91-1.25-.94-2.11-.11-3.45,.34-6.79,1.95-9.9,1.72-3.31,4.46-5.37,7.99-6.39,2.15-.62,4.33-1.12,6.45-2-2.13,.22-4.28,.38-6.4,.69-2.01,.3-4.01,.74-6,1.18-4.59,1.03-6.82,3.71-6.86,8.43-.02,2.45,.22,4.91,.34,7.27ZM17.21,22.94c-2.66-.38-5.29-.18-7.81,.83-2.3,.92-4.09,2.45-4.58,4.98-.84,4.31-.29,8.6,.47,12.86,.26-1.96,.4-3.92,.54-5.88,.39-5.06,2.84-8.78,7.35-11.09,1.29-.66,2.68-1.14,4.02-1.71Z"/><path d="M28.06,62.3c-1.73-1.9-3.44-4.01-5.39-5.86-2.92-2.78-5.25-5.84-5.98-9.91-.21-1.16-.72-2.44,1.27-2.63,.34-.03,.83-.7,.9-1.13,.63-4.17,3.55-5.75,7.23-6.27,4.38-.62,8.69-.3,12.74,1.71,2.02,1,3.46,2.51,3.83,4.86,.03,.22,.49,.54,.73,.52,2.06-.13,3.52,1.63,2.71,3.56-.5,1.18-1.2,2.41-2.15,3.24-2.97,2.64-6.08,5.12-9.17,7.62-1.84,1.49-3.74,2.91-5.4,4.2-.27-4.2-.56-8.81-.85-13.43l-.46,.02v13.51Zm-6.74-22.47c3.53-1.16,7.04-.5,10.55,.11,2.28,.4,4.54,.88,7.2,1.4-.46-.44-.59-.61-.76-.7-4.17-2.19-8.59-3.39-13.3-2.78-1.35,.17-2.6,1.14-3.9,1.75l-.26,.3,.46-.07Zm-3.19,7.99l-.24-.1,.12,.22c1.22,2.09,2.89,3.01,4.37,2.42,2.04-.82,3.3-4.78,2.11-6.64-.68-1.06-1.66-1.15-2.37-.09-.45,.67-.71,1.5-.93,2.29-.56,2.06-1.1,2.42-3.06,1.9Zm25.72-1.31c-1.19,.69-2.31,1.53-3.57,2.04-2.03,.81-3.32,.08-3.95-1.99-.27-.9-.43-1.84-.76-2.71-.6-1.6-2.37-1.9-3.51-.65-1.98,2.16-.88,6.83,1.85,7.85,3.29,1.23,8.6-1.19,9.95-4.53Z"/><path d="M74.47,75.66c4.35,1.89,8.77,7.88,7.57,16.43-.11-.59-.24-1.18-.33-1.78-.77-5.2-4.57-6.18-8.39-4.68-1.38,.54-2.58,1.56-3.8,2.45-1.98,1.45-3.86,3.04-5.89,4.42-.77,.53-1.82,.65-2.8,.84,3.14-1.76,5.33-4.53,7.8-6.99,1.29-1.29,2.63-2.61,4.17-3.54,1.08-.65,2.54-.82,3.85-.86,1.06-.04,1.26-.29,.8-1.12-.98-1.77-2.02-3.5-2.99-5.17Z"/><path d="M95.32,18.45c-1.34-.18-2.58-.44-3.83-.49-.91-.04-1.49-.29-2.09-1.03-.74-.92-1.76-1.61-2.65-2.41-.81-.73-1.77-1.36-2.38-2.23-1.07-1.52-.11-3.42,1.74-3.29,1.29,.09,2.67,.58,3.76,1.27,3.06,1.96,4.53,5.05,5.46,8.19Z"/><path d="M27.72,6.4c-.13,0,.15-.06,.39,.01,.59,.17,1.15,.39,1.73,.6-.33,.44-.65,.9-1.01,1.31-2.41,2.82-4.95,5.55-7.2,8.49-.97,1.28-1.92,1.19-3.1,.84-.2-.06-.45-.65-.36-.84,1.27-2.52,2.49-5.08,3.95-7.48,1.13-1.85,2.83-3.09,5.59-2.94Z"/><path d="M85.92,50.72c4.09,8.12,6.18,16.56,3.82,25.6-.53,2.03-1.67,3.9-2.78,5.77,3.39-10.63,1.95-21.02-1.04-31.37Z"/><path d="M93.35,67.87c.02-7.88-1.64-15.39-4.97-22.53-.16-.35-.26-.82-.17-1.17,.32-1.21,.75-2.38,1.22-3.84,1.23,6.36,4.33,11.99,4.55,18.33,.11,3.07-.08,6.14-.13,9.22h-.5Z"/><path d="M62.14,74.42c-1.53-.5-2.91-1.8-4.09-3.35-2.55-3.36-3.84-7.29-5.11-11.23-.19-.6-.21-.9,.59-.73,1.18,.26,2.08,.66,2.48,2,.61,2,1.31,3.99,2.2,5.88,1.22,2.57,2.65,5.05,3.93,7.44Z"/><path d="M52.57,9.09c-.72,.67-1.59,1.23-2.12,2.03-1.45,2.16-2.77,4.41-4.12,6.63-.22,.35-.25,.87-.54,1.11-.38,.31-.92,.41-1.4,.6,.03-.43,0-.87,.1-1.28,.11-.45,.32-.89,.51-1.31,.81-1.79,.65-2.88-1.09-3.77-1.45-.74-3.12-1.16-4.74-1.43-1.41-.23-2.9-.05-4.34-.19,3.8-1.14,7.57-1.23,11.18,.66,.97,.51,1.42,.42,2.25-.28,1.31-1.09,2.87-1.88,4.33-2.8v.03Z"/><path d="M26.41,18.79c2-.54,3.97-1.19,6-1.58,2.15-.4,3.74,1.75,2.84,3.74-.12,.26-.67,.49-.99,.45-1.18-.11-2.36-.33-3.53-.53-.2-.03-.4-.13-.59-.21-1.25-.5-2.49-1.01-3.74-1.51v-.38Z"/><path d="M32.35,14.63c2.52-1.04,5.17-1.73,7.97-.98,2.51,.67,3.05,2,1.83,4.24-.4,.73-.6,1.6-1.11,2.23-.39,.47-1.14,.65-1.72,.95-.03-.48-.2-1.01-.07-1.44,1.28-4.31,.66-5.19-3.78-5.16-1.04,0-2.07,.11-3.11,.17Z"/><path d="M52,13.77c2.75-3.34,8.33-4.14,12.32-1.11,.99,.75,1.86,1.67,2.76,2.53,.17,.16,.22,.44,.33,.67-.3,.04-.61,.17-.88,.11-.28-.07-.53-.31-.76-.52-3.49-3.26-7.46-3.92-11.88-2.24-.56,.21-1.15,.34-1.89,.57Z"/><path d="M59.77,16.02c-.41,.15-.62,.27-.84,.3-2.63,.42-5.25,.84-7.88,1.23-.22,.03-.47-.09-.71-.13,.09-.23,.12-.55,.29-.69,.56-.46,1.12-.99,1.77-1.26,2.17-.9,4.37-.93,6.54,.04,.23,.1,.43,.26,.84,.5Z"/><path d="M79.22,70.36c-3.03-3.16-4.81-6.62-6.37-10.22-.1-.24,.17-.64,.26-.96,.35,.14,.9,.19,1.02,.44,.88,1.95,1.61,3.96,2.51,5.9,.71,1.54,1.59,3,2.58,4.84Z"/><path d="M36.53,34.9c-1.76-.14-3.05-.24-4.34-.36-.19-.02-.37-.13-.56-.21,.14-.18,.24-.42,.43-.53,1.02-.59,2.04-1.17,3.1-1.68,.22-.11,.77,.04,.89,.24,.36,.56,.64,1.18,.8,1.82,.07,.26-.27,.62-.32,.71Z"/><path d="M52.58,9.05h.17l-.06-.11-.11,.14v-.03Z"/><path d="M18.03,70.95l.08-.1h0l-.11,.07,.03,.03Z"/><polygon points="32.77 7.14 32.78 7.23 32.73 7.17 32.77 7.14"/><polygon points="80.94 9.16 81.01 9.25 80.96 9.15 80.94 9.16"/><path d="M79.42,11.11l.16-.06-.1-.03-.02,.11-.04-.02Z"/></svg>